<svg xmlns="http://www.w3.org/2000/svg" version="1.1" xmlns:xlink="http://www.w3.org/1999/xlink" xmlns:svgjs="http://svgjs.dev/svgjs" width="1440" height="900" preserveAspectRatio="none" viewBox="0 0 1440 900"><g clip-path="url(&quot;#SvgjsClipPath1047&quot;)" fill="none"><rect width="1440" height="900" x="0" y="0" fill="rgba(244, 246, 249, 1)"></rect><circle r="150" cx="-126.69" cy="86.8" stroke="#909297" stroke-opacity="0.25" stroke-width="2"></circle><circle r="150" cx="535.83" cy="565.59" stroke="#909297" stroke-opacity="0.25" stroke-width="2"></circle><circle r="285.06" cx="795.28" cy="66.27" stroke="#909297" stroke-opacity="0.25" stroke-width="2"></circle><circle r="200.455" cx="241.52" cy="327.7" stroke="#909297" stroke-opacity="0.25" stroke-width="2"></circle><circle r="75.465" cx="94.56" cy="537.4" stroke="#909297" stroke-opacity="0.25" stroke-width="2"></circle><circle r="114.62" cx="979.61" cy="161.67" stroke="#909297" stroke-opacity="0.25" stroke-width="2"></circle><circle r="85.275" cx="641.92" cy="468.49" stroke="#909297" stroke-opacity="0.25" stroke-width="2"></circle><circle r="254.975" cx="263.38" cy="435.68" stroke="#909297" stroke-opacity="0.25" stroke-width="2"></circle><circle r="155.275" cx="1137.51" cy="592.7" stroke="#909297" stroke-opacity="0.25" stroke-width="2"></circle><circle r="254.755" cx="1328.03" cy="730.74" stroke="#909297" stroke-opacity="0.25" stroke-width="2"></circle><circle r="83.32" cx="1201.55" cy="119.31" stroke="#909297" stroke-opacity="0.25" stroke-width="2"></circle><circle r="233.785" cx="901.47" cy="437.41" stroke="#909297" stroke-opacity="0.25" stroke-width="2"></circle><circle r="124.64" cx="92.64" cy="244.59" stroke="#909297" stroke-opacity="0.25" stroke-width="2"></circle><circle r="253.55" cx="433.17" cy="214.62" stroke="#909297" stroke-opacity="0.25" stroke-width="2"></circle><circle r="175.085" cx="446.13" cy="33.06" stroke="#909297" stroke-opacity="0.25" stroke-width="2"></circle><circle r="92.155" cx="762.03" cy="774.8" stroke="#909297" stroke-opacity="0.25" stroke-width="2"></circle><circle r="193.51" cx="1255.05" cy="273.41" stroke="#909297" stroke-opacity="0.25" stroke-width="2"></circle><circle r="97.58" cx="639.61" cy="19.98" stroke="#909297" stroke-opacity="0.25" stroke-width="2"></circle><circle r="92.795" cx="329.34" cy="618.32" stroke="#909297" stroke-opacity="0.25" stroke-width="2"></circle><circle r="256.625" cx="277.5" cy="177.72" stroke="#909297" stroke-opacity="0.25" stroke-width="2"></circle><circle r="201.965" cx="1146.57" cy="653.87" stroke="#909297" stroke-opacity="0.25" stroke-width="2"></circle><circle r="202.715" cx="715.47" cy="725.87" stroke="#909297" stroke-opacity="0.25" stroke-width="2"></circle><circle r="95.39" cx="268.43" cy="486.49" stroke="#909297" stroke-opacity="0.25" stroke-width="2"></circle><circle r="109.92" cx="172.09" cy="653.74" stroke="#909297" stroke-opacity="0.25" stroke-width="2"></circle><circle r="154.295" cx="950.01" cy="461.82" stroke="#909297" stroke-opacity="0.25" stroke-width="2"></circle><circle r="158.31" cx="739.82" cy="481.04" stroke="#909297" stroke-opacity="0.25" stroke-width="2"></circle><circle r="263.305" cx="1074.8" cy="87.67" stroke="#909297" stroke-opacity="0.25" stroke-width="2"></circle><circle r="153.21" cx="518.75" cy="738.71" stroke="#909297" stroke-opacity="0.25" stroke-width="2"></circle><circle r="83.87" cx="493.78" cy="107.63" stroke="#909297" stroke-opacity="0.25" stroke-width="2"></circle><circle r="107.695" cx="1346" cy="464" stroke="#909297" stroke-opacity="0.25" stroke-width="2"></circle><circle r="129.01" cx="287.77" cy="77.76" stroke="#909297" stroke-opacity="0.25" stroke-width="2"></circle><circle r="210.745" cx="961.06" cy="724.55" stroke="#909297" stroke-opacity="0.25" stroke-width="2"></circle><circle r="187.725" cx="168.46" cy="86.65" stroke="#909297" stroke-opacity="0.25" stroke-width="2"></circle><circle r="83.555" cx="264.65" cy="753.31" stroke="#909297" stroke-opacity="0.25" stroke-width="2"></circle><circle r="184.39" cx="1266.06" cy="553.89" stroke="#909297" stroke-opacity="0.25" stroke-width="2"></circle><circle r="126.39" cx="526.79" cy="418.73" stroke="#909297" stroke-opacity="0.25" stroke-width="2"></circle><circle r="204.74" cx="1082.29" cy="751.34" stroke="#909297" stroke-opacity="0.25" stroke-width="2"></circle><circle r="140.7" cx="368.74" cy="656.73" stroke="#909297" stroke-opacity="0.25" stroke-width="2"></circle><circle r="268.405" cx="639.58" cy="304.34" stroke="#909297" stroke-opacity="0.25" stroke-width="2"></circle><circle r="119.935" cx="343.13" cy="575.7" stroke="#909297" stroke-opacity="0.25" stroke-width="2"></circle><circle r="227.235" cx="1229.29" cy="251.07" stroke="#909297" stroke-opacity="0.25" stroke-width="2"></circle><circle r="281.505" cx="572.06" cy="829.4" stroke="#909297" stroke-opacity="0.25" stroke-width="2"></circle><circle r="196.97" cx="11.97" cy="81.37" stroke="#909297" stroke-opacity="0.25" stroke-width="2"></circle><circle r="141.405" cx="131.36" cy="81.93" stroke="#909297" stroke-opacity="0.25" stroke-width="2"></circle><circle r="210.325" cx="555.74" cy="377.95" stroke="#909297" stroke-opacity="0.25" stroke-width="2"></circle><circle r="139.265" cx="540.38" cy="271.7" stroke="#909297" stroke-opacity="0.25" stroke-width="2"></circle><circle r="80.015" cx="783.63" cy="220.89" stroke="#909297" stroke-opacity="0.25" stroke-width="2"></circle><circle r="158.605" cx="601.67" cy="824.54" stroke="#909297" stroke-opacity="0.25" stroke-width="2"></circle></g><defs><clipPath id="SvgjsClipPath1047"><rect width="1440" height="900" x="0" y="0"></rect></clipPath></defs></svg>